# xmcd CD database file
#
# Track frame offsets:
#	150
#	14337
#	36497
#	56500
#	78410
#	93090
#	113515
#	133102
#	148985
#	166855
#	180212
#	201570
#	213147
#	230605
#	251372
#
# Disc length: 3520 seconds
#
# Revision: 0
# Processed by: cddbd v1.4PL0 Copyright (c) Steve Scherf et al.
# Submitted via: CDex 1.40Beta8
#
DISCID=c70dbe0f
DTITLE=Bluesberry - Já to platím
DYEAR=1996
DGENRE=Blues
TTITLE0=Blues o nevere
TTITLE1=Klic
TTITLE2=Kapacity
TTITLE3=Blues o stari (14.6.1951)
TTITLE4=Jsem za vodou
TTITLE5=Slama
TTITLE6=Blues smutnyho tydne
TTITLE7=Ja tom platim
TTITLE8=Mercedes blues
TTITLE9=Karlin
TTITLE10=V pul
TTITLE11=Pocem holka
TTITLE12=Blues o prumeru
TTITLE13=Klanovice
TTITLE14=Blues o vode
EXTD=YEAR: 1996 ID3G: 0
EXTT0=
EXTT1=
EXTT2=
EXTT3=
EXTT4=
EXTT5=
EXTT6=
EXTT7=
EXTT8=
EXTT9=
EXTT10=
EXTT11=
EXTT12=
EXTT13=
EXTT14=
PLAYORDER=
